<mxfile host="Electron" agent="Mozilla/5.0 (Windows NT 10.0; Win64; x64) AppleWebKit/537.36 (KHTML, like Gecko) draw.io/26.0.16 Chrome/132.0.6834.196 Electron/34.2.0 Safari/537.36" version="26.0.16">
  <diagram name="RAG Basics" id="F9nCUAy13USlokM8u2PG">
    <mxGraphModel dx="1151" dy="770" grid="1" gridSize="10" guides="1" tooltips="1" connect="1" arrows="1" fold="1" page="1" pageScale="1" pageWidth="850" pageHeight="1100" math="0" shadow="0">
      <root>
        <mxCell id="0" />
        <mxCell id="1" parent="0" />
        <mxCell id="v7QDHRKRP7UntffM9sf8-27" style="edgeStyle=orthogonalEdgeStyle;rounded=0;orthogonalLoop=1;jettySize=auto;html=1;" edge="1" parent="1" source="v7QDHRKRP7UntffM9sf8-1">
          <mxGeometry relative="1" as="geometry">
            <mxPoint x="110" y="280" as="targetPoint" />
            <Array as="points">
              <mxPoint x="181" y="280" />
              <mxPoint x="110" y="281" />
            </Array>
          </mxGeometry>
        </mxCell>
        <mxCell id="v7QDHRKRP7UntffM9sf8-28" value="&lt;b&gt;6. Result&lt;/b&gt;" style="edgeLabel;html=1;align=center;verticalAlign=middle;resizable=0;points=[];" vertex="1" connectable="0" parent="v7QDHRKRP7UntffM9sf8-27">
          <mxGeometry x="0.1707" y="-1" relative="1" as="geometry">
            <mxPoint x="3" y="13" as="offset" />
          </mxGeometry>
        </mxCell>
        <mxCell id="v7QDHRKRP7UntffM9sf8-1" value="" style="rounded=0;whiteSpace=wrap;html=1;" vertex="1" parent="1">
          <mxGeometry x="250" y="90" width="290" height="450" as="geometry" />
        </mxCell>
        <mxCell id="v7QDHRKRP7UntffM9sf8-2" value="&lt;b&gt;Retrieval Chain&lt;/b&gt;" style="text;html=1;align=center;verticalAlign=middle;whiteSpace=wrap;rounded=0;fontSize=17;" vertex="1" parent="1">
          <mxGeometry x="335" y="90" width="127.5" height="30" as="geometry" />
        </mxCell>
        <mxCell id="v7QDHRKRP7UntffM9sf8-3" value="RETRIEVER" style="rounded=1;whiteSpace=wrap;html=1;fontStyle=1;fillColor=#ffe6cc;strokeColor=#d79b00;" vertex="1" parent="1">
          <mxGeometry x="335" y="140" width="120" height="60" as="geometry" />
        </mxCell>
        <mxCell id="v7QDHRKRP7UntffM9sf8-6" style="edgeStyle=orthogonalEdgeStyle;rounded=0;orthogonalLoop=1;jettySize=auto;html=1;" edge="1" parent="1" source="v7QDHRKRP7UntffM9sf8-5">
          <mxGeometry relative="1" as="geometry">
            <mxPoint x="240" y="260" as="targetPoint" />
          </mxGeometry>
        </mxCell>
        <mxCell id="v7QDHRKRP7UntffM9sf8-7" value="1. Query" style="edgeLabel;html=1;align=center;verticalAlign=middle;resizable=0;points=[];fontStyle=1" vertex="1" connectable="0" parent="v7QDHRKRP7UntffM9sf8-6">
          <mxGeometry x="-0.1459" y="1" relative="1" as="geometry">
            <mxPoint x="7" y="-13" as="offset" />
          </mxGeometry>
        </mxCell>
        <mxCell id="v7QDHRKRP7UntffM9sf8-5" value="" style="shape=actor;whiteSpace=wrap;html=1;fillColor=#f9f7ed;strokeColor=#36393d;" vertex="1" parent="1">
          <mxGeometry x="60" y="230" width="40" height="60" as="geometry" />
        </mxCell>
        <mxCell id="v7QDHRKRP7UntffM9sf8-8" value="" style="rounded=1;whiteSpace=wrap;html=1;fontStyle=1;arcSize=12;fillColor=#dae8fc;strokeColor=#6c8ebf;" vertex="1" parent="1">
          <mxGeometry x="290" y="330" width="210" height="170" as="geometry" />
        </mxCell>
        <mxCell id="v7QDHRKRP7UntffM9sf8-11" style="edgeStyle=orthogonalEdgeStyle;rounded=0;orthogonalLoop=1;jettySize=auto;html=1;dashed=1;" edge="1" parent="1" source="v7QDHRKRP7UntffM9sf8-9" target="v7QDHRKRP7UntffM9sf8-3">
          <mxGeometry relative="1" as="geometry">
            <mxPoint x="500" y="180" as="targetPoint" />
            <Array as="points">
              <mxPoint x="750" y="181" />
              <mxPoint x="750" y="181" />
            </Array>
          </mxGeometry>
        </mxCell>
        <mxCell id="v7QDHRKRP7UntffM9sf8-9" value="Vectror&lt;div&gt;Store&lt;/div&gt;" style="strokeWidth=2;html=1;shape=mxgraph.flowchart.database;whiteSpace=wrap;fontStyle=1;fillColor=#f5f5f5;gradientColor=#b3b3b3;strokeColor=#666666;" vertex="1" parent="1">
          <mxGeometry x="770" y="120" width="90" height="115" as="geometry" />
        </mxCell>
        <mxCell id="v7QDHRKRP7UntffM9sf8-10" style="edgeStyle=orthogonalEdgeStyle;rounded=0;orthogonalLoop=1;jettySize=auto;html=1;" edge="1" parent="1" source="v7QDHRKRP7UntffM9sf8-3">
          <mxGeometry relative="1" as="geometry">
            <mxPoint x="770" y="170" as="targetPoint" />
            <Array as="points">
              <mxPoint x="760" y="170" />
            </Array>
          </mxGeometry>
        </mxCell>
        <mxCell id="v7QDHRKRP7UntffM9sf8-12" value="2. Get context (matching documents)&amp;nbsp;&lt;div&gt;for the&amp;nbsp;&amp;nbsp;&lt;span style=&quot;background-color: light-dark(#ffffff, var(--ge-dark-color, #121212)); color: light-dark(rgb(0, 0, 0), rgb(255, 255, 255));&quot;&gt;given query&lt;/span&gt;&lt;/div&gt;" style="edgeLabel;html=1;align=center;verticalAlign=middle;resizable=0;points=[];fontStyle=1" vertex="1" connectable="0" parent="v7QDHRKRP7UntffM9sf8-10">
          <mxGeometry x="0.3112" y="3" relative="1" as="geometry">
            <mxPoint x="3" y="-22" as="offset" />
          </mxGeometry>
        </mxCell>
        <mxCell id="v7QDHRKRP7UntffM9sf8-19" style="edgeStyle=orthogonalEdgeStyle;rounded=0;orthogonalLoop=1;jettySize=auto;html=1;entryX=0;entryY=0.5;entryDx=0;entryDy=0;" edge="1" parent="1" source="v7QDHRKRP7UntffM9sf8-13" target="v7QDHRKRP7UntffM9sf8-18">
          <mxGeometry relative="1" as="geometry" />
        </mxCell>
        <mxCell id="v7QDHRKRP7UntffM9sf8-20" value="4. Invoke model&amp;nbsp;&lt;div&gt;with the prompt&lt;br&gt;(context + query)&lt;/div&gt;" style="edgeLabel;html=1;align=center;verticalAlign=middle;resizable=0;points=[];fontStyle=1" vertex="1" connectable="0" parent="v7QDHRKRP7UntffM9sf8-19">
          <mxGeometry x="-0.6038" relative="1" as="geometry">
            <mxPoint x="162" y="-26" as="offset" />
          </mxGeometry>
        </mxCell>
        <mxCell id="v7QDHRKRP7UntffM9sf8-13" value="&lt;b&gt;Prompt&lt;/b&gt;&lt;div&gt;{{context}}&lt;/div&gt;&lt;div&gt;{{query}}&lt;/div&gt;" style="ellipse;whiteSpace=wrap;html=1;fillColor=#b0e3e6;strokeColor=#0e8088;" vertex="1" parent="1">
          <mxGeometry x="300" y="390" width="80" height="80" as="geometry" />
        </mxCell>
        <mxCell id="v7QDHRKRP7UntffM9sf8-14" value="&lt;b&gt;DOCUMENT&amp;nbsp;&lt;/b&gt;&lt;b style=&quot;background-color: transparent; color: light-dark(rgb(0, 0, 0), rgb(255, 255, 255));&quot;&gt;CHAIN&lt;/b&gt;" style="text;html=1;align=center;verticalAlign=middle;whiteSpace=wrap;rounded=0;" vertex="1" parent="1">
          <mxGeometry x="365" y="330" width="60" height="30" as="geometry" />
        </mxCell>
        <mxCell id="v7QDHRKRP7UntffM9sf8-16" style="edgeStyle=orthogonalEdgeStyle;rounded=0;orthogonalLoop=1;jettySize=auto;html=1;entryX=0.285;entryY=0.014;entryDx=0;entryDy=0;entryPerimeter=0;" edge="1" parent="1" source="v7QDHRKRP7UntffM9sf8-3" target="v7QDHRKRP7UntffM9sf8-13">
          <mxGeometry relative="1" as="geometry" />
        </mxCell>
        <mxCell id="v7QDHRKRP7UntffM9sf8-17" value="&lt;b&gt;3. Populate Context&lt;/b&gt;" style="edgeLabel;html=1;align=center;verticalAlign=middle;resizable=0;points=[];" vertex="1" connectable="0" parent="v7QDHRKRP7UntffM9sf8-16">
          <mxGeometry x="-0.5004" y="4" relative="1" as="geometry">
            <mxPoint as="offset" />
          </mxGeometry>
        </mxCell>
        <mxCell id="v7QDHRKRP7UntffM9sf8-18" value="&lt;b&gt;Model&lt;/b&gt;&lt;br&gt;( LLMs )" style="ellipse;whiteSpace=wrap;html=1;aspect=fixed;fillColor=#fad9d5;strokeColor=#ae4132;" vertex="1" parent="1">
          <mxGeometry x="670" y="360" width="140" height="140" as="geometry" />
        </mxCell>
        <mxCell id="v7QDHRKRP7UntffM9sf8-21" style="edgeStyle=orthogonalEdgeStyle;rounded=0;orthogonalLoop=1;jettySize=auto;html=1;entryX=0.985;entryY=0.636;entryDx=0;entryDy=0;entryPerimeter=0;dashed=1;" edge="1" parent="1" source="v7QDHRKRP7UntffM9sf8-18" target="v7QDHRKRP7UntffM9sf8-13">
          <mxGeometry relative="1" as="geometry">
            <Array as="points">
              <mxPoint x="525" y="440" />
            </Array>
          </mxGeometry>
        </mxCell>
        <mxCell id="v7QDHRKRP7UntffM9sf8-26" value="&lt;b&gt;5. Result&lt;/b&gt;" style="edgeLabel;html=1;align=center;verticalAlign=middle;resizable=0;points=[];" vertex="1" connectable="0" parent="v7QDHRKRP7UntffM9sf8-21">
          <mxGeometry x="-0.406" relative="1" as="geometry">
            <mxPoint y="11" as="offset" />
          </mxGeometry>
        </mxCell>
        <mxCell id="v7QDHRKRP7UntffM9sf8-29" value="RAG Fundamentals" style="text;html=1;align=center;verticalAlign=middle;whiteSpace=wrap;rounded=0;fontStyle=1;fontSize=22;" vertex="1" parent="1">
          <mxGeometry x="258" y="20" width="285" height="30" as="geometry" />
        </mxCell>
        <mxCell id="v7QDHRKRP7UntffM9sf8-30" value="Embeddings" style="text;html=1;align=center;verticalAlign=middle;whiteSpace=wrap;rounded=0;fontColor=#0000FF;" vertex="1" parent="1">
          <mxGeometry x="785" y="199" width="60" height="30" as="geometry" />
        </mxCell>
      </root>
    </mxGraphModel>
  </diagram>
</mxfile>
